<svg width="60" height="60" viewBox="0 0 60 60" fill="none" xmlns="http://www.w3.org/2000/svg">
<g clip-path="url(#clip0_79_2)">
<mask id="mask0_79_2" style="mask-type:luminance" maskUnits="userSpaceOnUse" x="0" y="0" width="60" height="60">
<path d="M60 0H0V60H60V0Z" fill="white"/>
</mask>
<g mask="url(#mask0_79_2)">
<path fill-rule="evenodd" clip-rule="evenodd" d="M28.4595 10.4683C28.9475 10.6155 29.465 10.6946 30.0013 10.6946C30.4813 10.6946 30.946 10.6312 31.3883 10.5124L47.2018 38.468C46.8488 38.809 46.5373 39.205 46.281 39.6528C46.0223 40.1048 45.8363 40.5793 45.7198 41.0623H14.2781C14.1613 40.5795 13.9751 40.105 13.7159 39.6528C13.4303 39.1595 13.0788 38.7287 12.6792 38.3655L28.4595 10.4683ZM26.1565 9.05492C26.2035 9.10387 26.2515 9.15195 26.3003 9.1991L10.482 37.163C10.408 37.143 10.3335 37.1245 10.2587 37.1077V22.8902C11.6603 22.5728 12.9301 21.6932 13.7013 20.3473C14.4673 19.0103 14.5955 17.481 14.1793 16.1133L26.1565 9.05492ZM35.0848 6.96633C35.2458 6.45578 35.3328 5.91185 35.3328 5.3473C35.3328 2.39019 32.9495 0 30.0013 0C27.0528 0 24.6698 2.39019 24.6698 5.3473C24.6698 5.8751 24.7457 6.38485 24.8872 6.86615L12.8938 13.934C12.5616 13.5927 12.1781 13.2903 11.7465 13.0388C9.19603 11.5679 5.9278 12.4413 4.46168 15C2.99558 17.5587 3.86608 20.8376 6.4165 22.3085C6.85 22.5585 7.30423 22.7408 7.7668 22.8586V37.145C7.30955 37.2627 6.8604 37.444 6.43115 37.6915C3.88073 39.1778 3.01023 42.4413 4.47633 45C5.94245 47.5587 9.1954 48.432 11.7611 46.9613C12.1881 46.7123 12.5681 46.4138 12.8979 46.0768L24.8851 53.141C24.7449 53.6202 24.6698 54.1275 24.6698 54.6527C24.6698 57.6097 27.0528 60 30.0013 60C32.9495 60 35.3328 57.5945 35.3328 54.6527C35.3328 54.031 35.2273 53.4345 35.0335 52.8797L46.9105 45.8805C47.281 46.2997 47.7238 46.6668 48.234 46.9613C50.782 48.432 54.047 47.5587 55.5118 45C56.9918 42.4413 56.1223 39.1778 53.559 37.6915C53.0758 37.4128 52.567 37.218 52.0495 37.1033V22.9019C52.5755 22.7877 53.0928 22.5915 53.5835 22.3085C56.134 20.8223 57.0045 17.5587 55.5383 15C54.057 12.4413 50.804 11.5679 48.2535 13.0388C47.7908 13.3085 47.3833 13.6368 47.035 14.0087L35.0848 6.96633ZM33.585 9.3092C33.649 9.25095 33.7115 9.19115 33.7725 9.12987L45.7915 16.2128C45.4113 17.5548 45.5513 19.0427 46.2988 20.3473C47.036 21.6341 48.2293 22.4947 49.5578 22.8451V37.1495C49.4928 37.1663 49.428 37.1845 49.3638 37.2038L33.585 9.3092ZM45.823 43.956L33.888 50.9895C32.916 49.9525 31.5353 49.3055 30.0013 49.3055C28.4868 49.3055 27.1213 49.9362 26.1515 50.9505L14.1896 43.9012C14.2196 43.8035 14.2468 43.705 14.2713 43.6058H45.7248C45.7538 43.7235 45.7865 43.8405 45.823 43.956Z" fill="#CC241D"/>
</g>
</g>
<defs>
<clipPath id="clip0_79_2">
<rect width="60" height="60" fill="white"/>
</clipPath>
</defs>
</svg>
